<svg id="baseline-fingerprint-24px" xmlns="http://www.w3.org/2000/svg" width="119.029" height="119.029" viewBox="0 0 119.029 119.029">
  <path id="Path_3" data-name="Path 3" d="M96.03,16.206a3.129,3.129,0,0,1-1.444-.345C82.527,10.167,72.1,7.751,59.6,7.751a77.136,77.136,0,0,0-34.982,8.11,3.355,3.355,0,0,1-4.271-1.15A2.788,2.788,0,0,1,21.607,10.8,84.666,84.666,0,0,1,59.6,2c13.377,0,25.059,2.7,37.871,8.742A2.705,2.705,0,0,1,98.794,14.6a3.113,3.113,0,0,1-2.763,1.61ZM6.157,46.4a3.488,3.488,0,0,1-1.821-.518,2.719,2.719,0,0,1-.754-4.026A63.593,63.593,0,0,1,27.134,23.05c19.721-9.317,44.968-9.375,64.752-.058a63.883,63.883,0,0,1,23.552,18.692,2.726,2.726,0,0,1-.754,4.026,3.318,3.318,0,0,1-4.4-.69A57.784,57.784,0,0,0,89,28.112c-18.025-8.455-41.074-8.455-59.036.058A58.362,58.362,0,0,0,8.606,45.193,2.808,2.808,0,0,1,6.157,46.4Zm39.253,69.42a3.081,3.081,0,0,1-2.2-.863A59.024,59.024,0,0,1,30.588,99.775a47.647,47.647,0,0,1-6.594-24.961c0-17.082,15.952-31,35.547-31s35.547,13.918,35.547,31a3.152,3.152,0,0,1-6.28,0c0-13.918-13.126-25.249-29.267-25.249S30.274,60.895,30.274,74.813a42.051,42.051,0,0,0,5.841,22.143c4.019,6.614,6.783,9.432,11.619,13.919a2.777,2.777,0,0,1,0,4.084A3.621,3.621,0,0,1,45.41,115.821Zm45.031-10.64c-7.474,0-14.068-1.725-19.469-5.119-9.358-5.809-14.947-15.241-14.947-25.249a3.152,3.152,0,0,1,6.28,0c0,8.11,4.522,15.759,12.184,20.475,4.459,2.761,9.672,4.084,15.952,4.084a45.217,45.217,0,0,0,6.532-.575,3.116,3.116,0,0,1,3.643,2.358,2.9,2.9,0,0,1-2.575,3.336,46.724,46.724,0,0,1-7.6.69ZM77.817,117.029a3.989,3.989,0,0,1-.816-.115c-9.986-2.531-16.518-5.924-23.363-12.078A40.271,40.271,0,0,1,40.009,74.813c0-9.317,8.667-16.909,19.344-16.909S78.7,65.5,78.7,74.813c0,6.154,5.841,11.158,13.063,11.158s13.063-5,13.063-11.158c0-21.683-20.411-39.282-45.533-39.282-17.837,0-34.166,9.087-41.514,23.178a34.384,34.384,0,0,0-3.705,16.1,52.866,52.866,0,0,0,4.208,20.763,2.746,2.746,0,0,1-1.821,3.681,3.205,3.205,0,0,1-4.019-1.668A59.318,59.318,0,0,1,7.853,74.813a40.148,40.148,0,0,1,4.271-18.635C20.476,40.132,39,29.722,59.29,29.722c28.576,0,51.814,20.188,51.814,45.034,0,9.317-8.667,16.909-19.344,16.909S72.416,84.073,72.416,74.756c0-6.154-5.841-11.158-13.063-11.158s-13.063,5-13.063,11.158a34.751,34.751,0,0,0,11.744,25.939c5.966,5.406,11.682,8.4,20.537,10.64a2.837,2.837,0,0,1,2.2,3.508A3.018,3.018,0,0,1,77.817,117.029Z" transform="translate(0)" fill="#fff"/>
  <path id="Path_4" data-name="Path 4" d="M0,0H119.029V119.029H0Z" fill="none"/>
</svg>
